<?xml version="1.0" standalone="no"?>
<!DOCTYPE svg PUBLIC "-//W3C//DTD SVG 20010904//EN"
 "http://www.w3.org/TR/2001/REC-SVG-20010904/DTD/svg10.dtd">
<svg version="1.0" xmlns="http://www.w3.org/2000/svg"
 width="512.000000pt" height="512.000000pt" viewBox="0 0 512.000000 512.000000"
 preserveAspectRatio="xMidYMid meet">

<g transform="translate(0.000000,512.000000) scale(0.100000,-0.100000)"
fill="#000000" stroke="none">
<path d="M3355 4996 c-337 -78 -568 -365 -568 -706 0 -124 19 -215 68 -315
175 -364 608 -516 970 -340 194 94 336 266 391 475 26 98 24 264 -5 365 -67
239 -240 421 -476 501 -98 33 -281 43 -380 20z m267 -376 c51 -15 127 -69 165
-118 133 -174 75 -433 -119 -530 -177 -88 -393 -13 -476 166 -23 49 -27 70
-27 147 0 77 4 98 27 147 29 62 96 136 149 164 80 42 186 51 281 24z"/>
<path d="M1668 3674 c-97 -15 -240 -59 -320 -100 -140 -70 -297 -209 -381
-337 -122 -183 -215 -471 -193 -591 8 -44 59 -104 103 -122 73 -31 176 -7 222
52 22 28 27 44 61 184 64 265 243 461 482 527 98 28 388 25 525 -5 152 -33
302 -83 563 -187 129 -51 280 -109 335 -129 698 -247 1302 -301 1724 -155 113
39 206 92 268 154 42 43 53 60 58 100 27 175 -154 277 -306 172 -232 -159
-690 -173 -1224 -37 -218 55 -373 108 -710 240 -315 123 -478 177 -635 209
-205 42 -408 51 -572 25z"/>
<path d="M2470 2690 c-19 -10 -323 -292 -675 -626 -696 -660 -1388 -1314
-1610 -1519 -77 -71 -148 -141 -158 -156 -10 -15 -20 -50 -24 -77 -8 -66 23
-133 79 -170 52 -34 139 -41 185 -15 56 31 373 326 1662 1548 336 319 615 580
620 580 15 0 895 -925 915 -961 22 -42 16 -76 -21 -110 l-26 -24 -641 0 c-410
0 -654 -4 -678 -10 -74 -21 -137 -102 -138 -178 0 -43 24 -100 58 -135 53 -56
68 -57 741 -57 357 0 645 5 686 10 337 49 514 430 332 717 -41 65 -1101 1168
-1141 1187 -45 21 -122 20 -166 -4z"/>
</g>
</svg>
